<svg width="135" height="22" viewBox="0 0 135 22" fill="none" xmlns="http://www.w3.org/2000/svg">
<path d="M8.84045 4.29509H10.6521V1.13974C10.3396 1.09674 9.26463 1 8.01275 1C5.40065 1 3.6113 2.643 3.6113 5.66274V8.44186H0.728821V11.9693H3.6113V20.845H7.14536V11.9701H9.91125L10.3503 8.44269H7.14453V6.01251C7.14536 4.99297 7.41988 4.29509 8.84045 4.29509Z" fill="white"/>
<path d="M72.6905 4.11613C71.8724 4.475 71.0006 4.71288 70.0917 4.82838C71.0267 4.27013 71.7404 3.39287 72.0759 2.3355C71.2041 2.85525 70.2416 3.22238 69.2159 3.42725C68.3881 2.54588 67.2084 2 65.9214 2C63.4244 2 61.4141 4.02675 61.4141 6.51137C61.4141 6.86888 61.4444 7.21263 61.5186 7.53988C57.769 7.357 54.4511 5.55988 52.2222 2.82225C51.8331 3.49738 51.6049 4.27012 51.6049 5.102C51.6049 6.664 52.4092 8.04862 53.6082 8.85025C52.8836 8.8365 52.1727 8.62613 51.5705 8.29475C51.5705 8.3085 51.5705 8.32638 51.5705 8.34425C51.5705 10.536 53.1339 12.3565 55.184 12.7759C54.8169 12.8763 54.4167 12.9244 54.0015 12.9244C53.7127 12.9244 53.4212 12.9079 53.1476 12.8474C53.732 14.6335 55.3902 15.9466 57.362 15.9893C55.8275 17.1896 53.8791 17.9129 51.7699 17.9129C51.4 17.9129 51.0452 17.8964 50.6905 17.851C52.6884 19.1394 55.0561 19.875 57.6095 19.875C65.909 19.875 70.4465 13 70.4465 7.04075C70.4465 6.84137 70.4396 6.64887 70.43 6.45775C71.3251 5.8225 72.0772 5.02913 72.6905 4.11613Z" fill="white"/>
<path fill-rule="evenodd" clip-rule="evenodd" d="M119.565 0H127.815C131.612 0 134.69 3.07862 134.69 6.875V15.125C134.69 18.9214 131.612 22 127.815 22H119.565C115.769 22 112.69 18.9214 112.69 15.125V6.875C112.69 3.07862 115.769 0 119.565 0ZM127.815 19.9375C130.469 19.9375 132.628 17.7787 132.628 15.125V6.875C132.628 4.22125 130.469 2.0625 127.815 2.0625H119.565C116.912 2.0625 114.753 4.22125 114.753 6.875V15.125C114.753 17.7787 116.912 19.9375 119.565 19.9375H127.815Z" fill="white"/>
<path fill-rule="evenodd" clip-rule="evenodd" d="M118.19 11C118.19 7.96263 120.653 5.5 123.69 5.5C126.728 5.5 129.19 7.96263 129.19 11C129.19 14.0374 126.728 16.5 123.69 16.5C120.653 16.5 118.19 14.0374 118.19 11ZM120.253 11C120.253 12.8948 121.796 14.4375 123.69 14.4375C125.585 14.4375 127.128 12.8948 127.128 11C127.128 9.10388 125.585 7.5625 123.69 7.5625C121.796 7.5625 120.253 9.10388 120.253 11Z" fill="white"/>
<circle cx="129.603" cy="5.08749" r="0.732875" fill="white"/>
</svg>
